<svg width="13" height="12" viewBox="0 0 13 12" fill="none" xmlns="http://www.w3.org/2000/svg">
<path d="M6.28926 5.41683C6.81796 5.41683 7.30584 5.54711 7.7529 5.80766C8.19996 6.06822 8.55373 6.42211 8.81419 6.86933C9.07465 7.31655 9.20488 7.80461 9.20488 8.3335V11.8335H8.03863V8.3335C8.03863 8.03016 7.96477 7.74822 7.81705 7.48766C7.66932 7.22711 7.47106 7.01711 7.22226 6.85766C6.97346 6.69822 6.69745 6.60683 6.39422 6.5835H6.28926C5.98603 6.5835 5.70419 6.65738 5.44373 6.80516C5.18326 6.95294 4.97334 7.15127 4.81395 7.40016C4.65456 7.64905 4.56321 7.92516 4.53988 8.2285V11.8335H3.37363V8.3335C3.37363 7.80461 3.50386 7.31655 3.76433 6.86933C4.02479 6.42211 4.37855 6.06822 4.82561 5.80766C5.27268 5.54711 5.76056 5.41683 6.28926 5.41683ZM2.49895 7.16683C2.66222 7.16683 2.82161 7.18627 2.97711 7.22516C2.87603 7.52072 2.81383 7.82405 2.79051 8.13516V8.38016C2.72053 8.35683 2.65056 8.34127 2.58058 8.3335H2.49895C2.27347 8.3335 2.07715 8.40933 1.90999 8.561C1.74283 8.71266 1.64758 8.90127 1.62426 9.12683V9.2085V11.8335H0.458008V9.2085C0.458008 8.83516 0.549364 8.49294 0.732077 8.18183C0.914789 7.87072 1.16165 7.62377 1.47265 7.441C1.78365 7.25822 2.12575 7.16683 2.49895 7.16683ZM10.0796 7.16683C10.4528 7.16683 10.7949 7.25822 11.1059 7.441C11.4169 7.62377 11.6637 7.87072 11.8464 8.18183C12.0292 8.49294 12.1205 8.83516 12.1205 9.2085V11.8335H10.9543V9.2085C10.9543 8.98294 10.8785 8.78655 10.7268 8.61933C10.5752 8.45211 10.3867 8.35683 10.1612 8.3335H10.0796C9.9785 8.3335 9.88131 8.34905 9.78801 8.38016V8.3335C9.78801 7.95238 9.7297 7.58294 9.61307 7.22516C9.7608 7.18627 9.9163 7.16683 10.0796 7.16683ZM2.49895 3.66683C2.7633 3.66683 3.00626 3.73294 3.22785 3.86516C3.44944 3.99739 3.62632 4.17433 3.7585 4.396C3.89067 4.61766 3.95676 4.86072 3.95676 5.12516C3.95676 5.38961 3.89067 5.63266 3.7585 5.85433C3.62632 6.076 3.44944 6.25294 3.22785 6.38516C3.00626 6.51739 2.7633 6.5835 2.49895 6.5835C2.2346 6.5835 1.99163 6.51739 1.77004 6.38516C1.54845 6.25294 1.37157 6.076 1.2394 5.85433C1.10722 5.63266 1.04113 5.38961 1.04113 5.12516C1.04113 4.86072 1.10722 4.61766 1.2394 4.396C1.37157 4.17433 1.54845 3.99739 1.77004 3.86516C1.99163 3.73294 2.2346 3.66683 2.49895 3.66683ZM10.0796 3.66683C10.3439 3.66683 10.5869 3.73294 10.8085 3.86516C11.0301 3.99739 11.2069 4.17433 11.3391 4.396C11.4713 4.61766 11.5374 4.86072 11.5374 5.12516C11.5374 5.38961 11.4713 5.63266 11.3391 5.85433C11.2069 6.076 11.0301 6.25294 10.8085 6.38516C10.5869 6.51739 10.3439 6.5835 10.0796 6.5835C9.81522 6.5835 9.57225 6.51739 9.35066 6.38516C9.12908 6.25294 8.9522 6.076 8.82002 5.85433C8.68785 5.63266 8.62176 5.38961 8.62176 5.12516C8.62176 4.86072 8.68785 4.61766 8.82002 4.396C8.9522 4.17433 9.12908 3.99739 9.35066 3.86516C9.57225 3.73294 9.81522 3.66683 10.0796 3.66683ZM2.49895 4.8335C2.4212 4.8335 2.35316 4.86266 2.29485 4.921C2.23654 4.97933 2.20738 5.04738 2.20738 5.12516C2.20738 5.20294 2.23654 5.271 2.29485 5.32933C2.35316 5.38766 2.4212 5.41683 2.49895 5.41683C2.5767 5.41683 2.64473 5.38766 2.70304 5.32933C2.76135 5.271 2.79051 5.20294 2.79051 5.12516C2.79051 5.04738 2.76135 4.97933 2.70304 4.921C2.64473 4.86266 2.5767 4.8335 2.49895 4.8335ZM10.0796 4.8335C10.0018 4.8335 9.93379 4.86266 9.87548 4.921C9.81716 4.97933 9.78801 5.04738 9.78801 5.12516C9.78801 5.20294 9.81716 5.271 9.87548 5.32933C9.93379 5.38766 10.0018 5.41683 10.0796 5.41683C10.1573 5.41683 10.2254 5.38766 10.2837 5.32933C10.342 5.271 10.3711 5.20294 10.3711 5.12516C10.3711 5.04738 10.342 4.97933 10.2837 4.921C10.2254 4.86266 10.1573 4.8335 10.0796 4.8335ZM6.28926 0.166829C6.70911 0.166829 7.09786 0.27183 7.45551 0.48183C7.81316 0.69183 8.09695 0.975718 8.30687 1.3335C8.5168 1.69127 8.62176 2.08016 8.62176 2.50016C8.62176 2.92016 8.5168 3.30905 8.30687 3.66683C8.09695 4.02461 7.81316 4.3085 7.45551 4.5185C7.09786 4.7285 6.70911 4.8335 6.28926 4.8335C5.86941 4.8335 5.48066 4.7285 5.12301 4.5185C4.76536 4.3085 4.48157 4.02461 4.27165 3.66683C4.06172 3.30905 3.95676 2.92016 3.95676 2.50016C3.95676 2.08016 4.06172 1.69127 4.27165 1.3335C4.48157 0.975718 4.76536 0.69183 5.12301 0.48183C5.48066 0.27183 5.86941 0.166829 6.28926 0.166829ZM6.28926 1.3335C6.07933 1.3335 5.88496 1.386 5.70613 1.491C5.52731 1.596 5.38541 1.73794 5.28045 1.91683C5.17549 2.09572 5.12301 2.29016 5.12301 2.50016C5.12301 2.71016 5.17549 2.90461 5.28045 3.0835C5.38541 3.26239 5.52731 3.40433 5.70613 3.50933C5.88496 3.61433 6.07933 3.66683 6.28926 3.66683C6.49918 3.66683 6.69356 3.61433 6.87238 3.50933C7.05121 3.40433 7.1931 3.26239 7.29806 3.0835C7.40303 2.90461 7.45551 2.71016 7.45551 2.50016C7.45551 2.29016 7.40303 2.09572 7.29806 1.91683C7.1931 1.73794 7.05121 1.596 6.87238 1.491C6.69356 1.386 6.49918 1.3335 6.28926 1.3335Z" fill="#4B5563"/>
</svg>
