<svg width="20" height="21" viewBox="0 0 20 21" fill="none" xmlns="http://www.w3.org/2000/svg">
<path d="M10 9.32812C10.9067 9.32812 11.7433 9.55146 12.51 9.99813C13.2767 10.4448 13.8833 11.0515 14.33 11.8181C14.7767 12.5848 15 13.4215 15 14.3281V20.3281H13V14.3281C13 13.8081 12.8733 13.3248 12.62 12.8781C12.3667 12.4315 12.0267 12.0715 11.6 11.7981C11.1733 11.5248 10.7 11.3681 10.18 11.3281H10C9.48 11.3281 8.99667 11.4548 8.55 11.7081C8.10333 11.9615 7.74333 12.3015 7.47 12.7281C7.19667 13.1548 7.04 13.6281 7 14.1481V20.3281H5V14.3281C5 13.4215 5.22333 12.5848 5.67 11.8181C6.11667 11.0515 6.72333 10.4448 7.49 9.99813C8.25667 9.55146 9.09333 9.32812 10 9.32812ZM3.5 12.3281C3.78 12.3281 4.05333 12.3615 4.32 12.4281C4.14667 12.9348 4.04 13.4548 4 13.9881V14.4081C3.88 14.3681 3.76 14.3415 3.64 14.3281H3.5C3.11333 14.3281 2.77667 14.4581 2.49 14.7181C2.20333 14.9781 2.04 15.3015 2 15.6881V15.8281V20.3281H0V15.8281C0 15.1881 0.156667 14.6015 0.47 14.0681C0.783333 13.5348 1.20667 13.1115 1.74 12.7981C2.27333 12.4848 2.86 12.3281 3.5 12.3281ZM16.5 12.3281C17.14 12.3281 17.7267 12.4848 18.26 12.7981C18.7933 13.1115 19.2167 13.5348 19.53 14.0681C19.8433 14.6015 20 15.1881 20 15.8281V20.3281H18V15.8281C18 15.4415 17.87 15.1048 17.61 14.8181C17.35 14.5315 17.0267 14.3681 16.64 14.3281H16.5C16.3267 14.3281 16.16 14.3548 16 14.4081V14.3281C16 13.6748 15.9 13.0415 15.7 12.4281C15.9533 12.3615 16.22 12.3281 16.5 12.3281ZM3.5 6.32812C3.95333 6.32812 4.37 6.44146 4.75 6.66813C5.13 6.89479 5.43333 7.19812 5.66 7.57812C5.88667 7.95813 6 8.37479 6 8.82812C6 9.28146 5.88667 9.69812 5.66 10.0781C5.43333 10.4581 5.13 10.7615 4.75 10.9881C4.37 11.2148 3.95333 11.3281 3.5 11.3281C3.04667 11.3281 2.63 11.2148 2.25 10.9881C1.87 10.7615 1.56667 10.4581 1.34 10.0781C1.11333 9.69812 1 9.28146 1 8.82812C1 8.37479 1.11333 7.95813 1.34 7.57812C1.56667 7.19812 1.87 6.89479 2.25 6.66813C2.63 6.44146 3.04667 6.32812 3.5 6.32812ZM16.5 6.32812C16.9533 6.32812 17.37 6.44146 17.75 6.66813C18.13 6.89479 18.4333 7.19812 18.66 7.57812C18.8867 7.95813 19 8.37479 19 8.82812C19 9.28146 18.8867 9.69812 18.66 10.0781C18.4333 10.4581 18.13 10.7615 17.75 10.9881C17.37 11.2148 16.9533 11.3281 16.5 11.3281C16.0467 11.3281 15.63 11.2148 15.25 10.9881C14.87 10.7615 14.5667 10.4581 14.34 10.0781C14.1133 9.69812 14 9.28146 14 8.82812C14 8.37479 14.1133 7.95813 14.34 7.57812C14.5667 7.19812 14.87 6.89479 15.25 6.66813C15.63 6.44146 16.0467 6.32812 16.5 6.32812ZM3.5 8.32812C3.36667 8.32812 3.25 8.37813 3.15 8.47813C3.05 8.57812 3 8.69479 3 8.82812C3 8.96146 3.05 9.07812 3.15 9.17813C3.25 9.27812 3.36667 9.32812 3.5 9.32812C3.63333 9.32812 3.75 9.27812 3.85 9.17813C3.95 9.07812 4 8.96146 4 8.82812C4 8.69479 3.95 8.57812 3.85 8.47813C3.75 8.37813 3.63333 8.32812 3.5 8.32812ZM16.5 8.32812C16.3667 8.32812 16.25 8.37813 16.15 8.47813C16.05 8.57812 16 8.69479 16 8.82812C16 8.96146 16.05 9.07812 16.15 9.17813C16.25 9.27812 16.3667 9.32812 16.5 9.32812C16.6333 9.32812 16.75 9.27812 16.85 9.17813C16.95 9.07812 17 8.96146 17 8.82812C17 8.69479 16.95 8.57812 16.85 8.47813C16.75 8.37813 16.6333 8.32812 16.5 8.32812ZM10 0.328125C10.72 0.328125 11.3867 0.508125 12 0.868126C12.6133 1.22812 13.1 1.71479 13.46 2.32812C13.82 2.94146 14 3.60813 14 4.32812C14 5.04813 13.82 5.71479 13.46 6.32812C13.1 6.94146 12.6133 7.42813 12 7.78813C11.3867 8.14813 10.72 8.32812 10 8.32812C9.28 8.32812 8.61333 8.14813 8 7.78813C7.38667 7.42813 6.9 6.94146 6.54 6.32812C6.18 5.71479 6 5.04813 6 4.32812C6 3.60813 6.18 2.94146 6.54 2.32812C6.9 1.71479 7.38667 1.22812 8 0.868126C8.61333 0.508125 9.28 0.328125 10 0.328125ZM10 2.32812C9.64 2.32812 9.30667 2.41813 9 2.59813C8.69333 2.77813 8.45 3.02146 8.27 3.32812C8.09 3.63479 8 3.96813 8 4.32812C8 4.68813 8.09 5.02146 8.27 5.32812C8.45 5.63479 8.69333 5.87813 9 6.05813C9.30667 6.23812 9.64 6.32812 10 6.32812C10.36 6.32812 10.6933 6.23812 11 6.05813C11.3067 5.87813 11.55 5.63479 11.73 5.32812C11.91 5.02146 12 4.68813 12 4.32812C12 3.96813 11.91 3.63479 11.73 3.32812C11.55 3.02146 11.3067 2.77813 11 2.59813C10.6933 2.41813 10.36 2.32812 10 2.32812Z" fill="#16A34A"/>
</svg>
