<svg width="20" height="20" viewBox="0 0 20 20" fill="none" xmlns="http://www.w3.org/2000/svg">
<path d="M9.99533 4C6.39972 4 3.5 6.31659 3.5 9.12896C3.5 10.9545 4.70628 12.5529 6.51571 13.4656L5.90328 15.7499C5.89174 15.7841 5.88997 15.8209 5.89816 15.856C5.90636 15.8912 5.92419 15.9235 5.94969 15.9491C5.98685 15.9818 6.03468 15.9999 6.08423 16C6.12532 15.9968 6.1643 15.9805 6.19557 15.9537L8.83084 14.1792C9.21984 14.2328 9.61196 14.2606 10.0047 14.2626C13.5957 14.2626 16.5 11.946 16.5 9.12896C16.5 6.31196 13.5863 4 9.99533 4Z" fill="#392020"/>
</svg>
